<svg width="320" height="180" viewBox="0 0 320 180" fill="none" xmlns="http://www.w3.org/2000/svg">
<g clip-path="url(#clip0_6_10374)">
<path d="M137.288 70.0037V78.0497H104.312V70.0037H137.288ZM115.474 55.1016H125.902V116.127C125.902 118.204 126.221 119.772 126.86 120.83C127.499 121.887 128.326 122.586 129.34 122.926C130.355 123.266 131.445 123.436 132.61 123.436C133.474 123.436 134.376 123.36 135.316 123.209C136.293 123.021 137.025 122.869 137.514 122.756L137.57 131.312C136.744 131.576 135.654 131.822 134.301 132.049C132.986 132.313 131.388 132.445 129.51 132.445C126.954 132.445 124.605 131.935 122.463 130.915C120.321 129.896 118.611 128.196 117.334 125.816C116.094 123.398 115.474 120.15 115.474 116.07V55.1016Z" fill="#001854"/>
<path d="M213.238 80.1123L174.574 55.467C165.92 49.9508 154.586 56.1668 154.586 66.4293V118.248C154.586 128.776 166.447 134.938 175.061 128.884L213.725 101.711C221.297 96.3898 221.041 85.0863 213.238 80.1123Z" fill="#001854" stroke="#001854"/>
</g>
<defs>
<clipPath id="clip0_6_10374">
<rect width="320" height="180" fill="white"/>
</clipPath>
</defs>
</svg>
