<svg width="108" height="108" viewBox="0 0 108 108" fill="none" xmlns="http://www.w3.org/2000/svg">
<path d="M44.2119 44.0892V47.5569H30V44.0892H44.2119ZM34.8102 37.6667H39.3045V63.9671C39.3045 64.8625 39.4422 65.5381 39.7175 65.994C39.9928 66.4498 40.3492 66.751 40.7864 66.8975C41.2237 67.044 41.6934 67.1173 42.1955 67.1173C42.568 67.1173 42.9567 67.0847 43.3616 67.0196C43.7827 66.9382 44.0985 66.8731 44.309 66.8243L44.3333 70.5117C43.977 70.6256 43.5073 70.7315 42.9243 70.8291C42.3574 70.9431 41.6691 71.0001 40.8593 71.0001C39.758 71.0001 38.7458 70.7803 37.8226 70.3407C36.8994 69.9012 36.1625 69.1686 35.6119 68.1429C35.0774 67.101 34.8102 65.7009 34.8102 63.9427V37.6667Z" fill="#001854"/>
<path d="M78.5429 49.4646L58.3292 36.58C55.4445 34.7413 51.6667 36.8133 51.6667 40.2342V67.3247C51.6667 70.8342 55.6204 72.888 58.4917 70.8701L78.7054 56.664C81.2291 54.8904 81.1441 51.1226 78.5429 49.4646Z" fill="#001854" stroke="#001854" stroke-width="0.333333"/>
</svg>
