<svg width="320" height="180" viewBox="0 0 320 180" fill="none" xmlns="http://www.w3.org/2000/svg">
<g clip-path="url(#clip0_6_10374)">
<path d="M137.288 70.0037V78.0497H104.312V70.0037H137.288ZM115.474 55.1016H125.902V116.127C125.902 118.204 126.221 119.772 126.86 120.83C127.499 121.887 128.326 122.586 129.34 122.926C130.355 123.266 131.445 123.436 132.61 123.436C133.474 123.436 134.376 123.36 135.316 123.209C136.293 123.021 137.025 122.869 137.514 122.756L137.57 131.312C136.744 131.576 135.654 131.822 134.301 132.049C132.986 132.313 131.388 132.445 129.51 132.445C126.954 132.445 124.605 131.935 122.463 130.915C120.321 129.896 118.611 128.196 117.334 125.816C116.094 123.398 115.474 120.15 115.474 116.07V55.1016Z" fill="#001854"/>
<path d="M213.238 80.1123L174.574 55.467C165.92 49.9508 154.586 56.1668 154.586 66.4293V118.248C154.586 128.776 166.447 134.938 175.061 128.884L213.725 101.711C221.297 96.3898 221.041 85.0863 213.238 80.1123Z" fill="#001854" stroke="#001854"/>
<path d="M199.121 98.9062C198.636 98.9062 198.218 98.8437 197.868 98.7186C197.519 98.5965 197.228 98.4345 196.995 98.2328C196.764 98.0339 196.581 97.8208 196.445 97.5934L197.246 97.0308C197.337 97.1502 197.452 97.2866 197.591 97.44C197.731 97.5963 197.921 97.7312 198.162 97.8449C198.407 97.9614 198.726 98.0197 199.121 98.0197C199.65 98.0197 200.086 97.8918 200.43 97.6361C200.774 97.3803 200.946 96.9797 200.946 96.4341V95.1043H200.86C200.787 95.2237 200.681 95.3714 200.545 95.5476C200.411 95.7209 200.218 95.8758 199.965 96.0122C199.715 96.1457 199.377 96.2125 198.951 96.2125C198.422 96.2125 197.948 96.0875 197.527 95.8374C197.11 95.5874 196.779 95.2237 196.534 94.7463C196.293 94.2689 196.172 93.6893 196.172 93.0073C196.172 92.3368 196.29 91.7529 196.526 91.2556C196.762 90.7555 197.09 90.3691 197.51 90.0963C197.931 89.8207 198.417 89.6829 198.968 89.6829C199.394 89.6829 199.732 89.7539 199.982 89.896C200.235 90.0352 200.429 90.1943 200.562 90.3733C200.698 90.5495 200.804 90.6944 200.877 90.8081H200.98V89.7681H201.952V96.5023C201.952 97.0649 201.824 97.5224 201.568 97.8747C201.315 98.2299 200.974 98.4899 200.545 98.6547C200.119 98.8224 199.644 98.9062 199.121 98.9062ZM199.087 95.3089C199.491 95.3089 199.832 95.2166 200.11 95.0319C200.389 94.8472 200.6 94.5815 200.745 94.2349C200.89 93.8882 200.963 93.4733 200.963 92.9903C200.963 92.5186 200.892 92.1023 200.75 91.7415C200.608 91.3806 200.397 91.0979 200.119 90.8933C199.84 90.6887 199.497 90.5864 199.087 90.5864C198.661 90.5864 198.306 90.6944 198.022 90.9104C197.741 91.1263 197.529 91.4161 197.387 91.7798C197.248 92.1435 197.178 92.547 197.178 92.9903C197.178 93.4449 197.249 93.847 197.391 94.1965C197.536 94.5431 197.749 94.8159 198.03 95.0148C198.314 95.2109 198.667 95.3089 199.087 95.3089Z" fill="white"/>
<path d="M193.631 93.6381V89.7681H194.637V96.3148H193.631V95.2066H193.563C193.409 95.539 193.17 95.8218 192.846 96.0548C192.523 96.2849 192.113 96.4 191.619 96.4C191.21 96.4 190.846 96.3105 190.528 96.1315C190.21 95.9496 189.96 95.6768 189.778 95.3131C189.596 94.9466 189.505 94.4849 189.505 93.9279V89.7681H190.511V93.8597C190.511 94.3371 190.644 94.7179 190.911 95.002C191.181 95.2861 191.525 95.4282 191.943 95.4282C192.193 95.4282 192.447 95.3643 192.706 95.2364C192.967 95.1086 193.186 94.9125 193.362 94.6482C193.541 94.384 193.631 94.0473 193.631 93.6381Z" fill="white"/>
<path d="M182.187 96.3149V87.5859H183.193V90.8081H183.278C183.352 90.6945 183.454 90.5496 183.585 90.3734C183.718 90.1944 183.909 90.0353 184.156 89.896C184.406 89.754 184.744 89.6829 185.17 89.6829C185.722 89.6829 186.207 89.8207 186.628 90.0964C187.049 90.372 187.377 90.7627 187.613 91.2684C187.848 91.7742 187.966 92.3709 187.966 93.0586C187.966 93.7519 187.848 94.3528 187.613 94.8615C187.377 95.3672 187.05 95.7593 186.632 96.0378C186.215 96.3134 185.733 96.4512 185.187 96.4512C184.767 96.4512 184.43 96.3816 184.177 96.2424C183.924 96.1003 183.73 95.9398 183.593 95.7608C183.457 95.5789 183.352 95.4283 183.278 95.309H183.159V96.3149H182.187ZM183.176 93.0415C183.176 93.5359 183.248 93.9721 183.393 94.35C183.538 94.7251 183.75 95.0192 184.028 95.2323C184.307 95.4425 184.647 95.5477 185.051 95.5477C185.472 95.5477 185.822 95.4368 186.104 95.2152C186.388 94.9907 186.601 94.6895 186.743 94.3116C186.888 93.9309 186.96 93.5075 186.96 93.0415C186.96 92.5812 186.889 92.1663 186.747 91.797C186.608 91.4247 186.396 91.1306 186.112 90.9147C185.831 90.6959 185.477 90.5865 185.051 90.5865C184.642 90.5865 184.298 90.6902 184.02 90.8976C183.741 91.1022 183.531 91.3892 183.389 91.7586C183.247 92.1251 183.176 92.5528 183.176 93.0415Z" fill="white"/>
<path d="M177.81 96.4512C177.179 96.4512 176.635 96.3119 176.177 96.0335C175.723 95.7522 175.372 95.3601 175.124 94.8571C174.88 94.3514 174.758 93.7632 174.758 93.0926C174.758 92.422 174.88 91.831 175.124 91.3195C175.372 90.8052 175.715 90.4046 176.156 90.1176C176.599 89.8278 177.116 89.6829 177.707 89.6829C178.048 89.6829 178.385 89.7397 178.717 89.8533C179.05 89.967 179.352 90.1517 179.625 90.4074C179.898 90.6603 180.115 90.9956 180.277 91.4133C180.439 91.831 180.52 92.3453 180.52 92.9562V93.3824H175.474V92.5129H179.497C179.497 92.1436 179.424 91.8139 179.276 91.5241C179.131 91.2343 178.923 91.0056 178.653 90.8379C178.386 90.6703 178.071 90.5864 177.707 90.5864C177.307 90.5864 176.96 90.6859 176.667 90.8848C176.377 91.0809 176.154 91.3366 175.998 91.652C175.842 91.9674 175.764 92.3055 175.764 92.6664V93.246C175.764 93.7404 175.849 94.1596 176.019 94.5034C176.193 94.8443 176.433 95.1043 176.74 95.2833C177.047 95.4595 177.403 95.5476 177.81 95.5476C178.074 95.5476 178.313 95.5107 178.526 95.4368C178.742 95.3601 178.928 95.2464 179.084 95.0958C179.24 94.9424 179.361 94.752 179.446 94.5247L180.418 94.7975C180.316 95.1271 180.144 95.4169 179.902 95.6669C179.661 95.9141 179.362 96.1074 179.007 96.2466C178.652 96.383 178.253 96.4512 177.81 96.4512Z" fill="white"/>
<path d="M169.268 96.3149H166.574V87.5859H169.388C170.234 87.5859 170.959 87.7607 171.561 88.1102C172.164 88.4568 172.625 88.9555 172.946 89.6062C173.268 90.2541 173.428 91.0298 173.428 91.9333C173.428 92.8426 173.266 93.6254 172.942 94.2818C172.618 94.9353 172.147 95.4383 171.527 95.7906C170.908 96.1401 170.155 96.3149 169.268 96.3149ZM167.632 95.3772H169.2C169.922 95.3772 170.52 95.2379 170.994 94.9595C171.469 94.681 171.823 94.2846 172.056 93.7703C172.289 93.256 172.405 92.6437 172.405 91.9333C172.405 91.2287 172.29 90.622 172.06 90.1134C171.83 89.6019 171.486 89.2098 171.028 88.937C170.571 88.6614 170.001 88.5236 169.319 88.5236H167.632V95.3772Z" fill="white"/>
</g>
<defs>
<clipPath id="clip0_6_10374">
<rect width="320" height="180" fill="white"/>
</clipPath>
</defs>
</svg>
