<svg width="108" height="108" viewBox="0 0 108 108" fill="none" xmlns="http://www.w3.org/2000/svg">
<path d="M44.2119 44.0892V47.5569H30V44.0892H44.2119ZM34.8102 37.6667H39.3045V63.9671C39.3045 64.8625 39.4422 65.5381 39.7175 65.994C39.9928 66.4498 40.3492 66.751 40.7864 66.8975C41.2237 67.044 41.6934 67.1173 42.1955 67.1173C42.568 67.1173 42.9567 67.0847 43.3616 67.0196C43.7827 66.9382 44.0985 66.8731 44.309 66.8243L44.3333 70.5117C43.977 70.6256 43.5073 70.7315 42.9243 70.8291C42.3574 70.9431 41.6691 71.0001 40.8593 71.0001C39.758 71.0001 38.7458 70.7803 37.8226 70.3407C36.8994 69.9012 36.1625 69.1686 35.6119 68.1429C35.0774 67.101 34.8102 65.7009 34.8102 63.9427V37.6667Z" fill="#001854"/>
<path d="M78.5429 49.4646L58.3292 36.58C55.4445 34.7413 51.6667 36.8133 51.6667 40.2342V67.3247C51.6667 70.8342 55.6204 72.888 58.4917 70.8701L78.7054 56.664C81.2291 54.8904 81.1441 51.1226 78.5429 49.4646Z" fill="#001854" stroke="#001854" stroke-width="0.333333"/>
<path d="M70.8604 56.5453C70.651 56.5453 70.471 56.5184 70.3204 56.4645C70.1698 56.4119 70.0442 56.3421 69.9438 56.2551C69.8446 56.1694 69.7656 56.0776 69.7069 55.9796L70.0522 55.7371C70.0914 55.7885 70.141 55.8473 70.201 55.9135C70.261 55.9808 70.343 56.039 70.4471 56.088C70.5524 56.1382 70.6902 56.1633 70.8604 56.1633C71.0882 56.1633 71.2762 56.1082 71.4244 55.998C71.5725 55.8877 71.6466 55.7151 71.6466 55.48V54.9068H71.6099C71.578 54.9583 71.5327 55.022 71.4739 55.0979C71.4164 55.1726 71.3331 55.2393 71.2241 55.2981C71.1164 55.3557 70.9706 55.3844 70.7869 55.3844C70.5592 55.3844 70.3547 55.3306 70.1734 55.2228C69.9934 55.115 69.8507 54.9583 69.7454 54.7525C69.6413 54.5468 69.5893 54.297 69.5893 54.0031C69.5893 53.7141 69.6401 53.4624 69.7418 53.2481C69.8434 53.0326 69.9848 52.8661 70.1661 52.7485C70.3473 52.6297 70.5567 52.5703 70.7943 52.5703C70.978 52.5703 71.1237 52.6009 71.2315 52.6622C71.3405 52.7222 71.4237 52.7907 71.4813 52.8679C71.5401 52.9438 71.5854 53.0063 71.6172 53.0553H71.6613V52.6071H72.0801V55.5093C72.0801 55.7518 72.025 55.949 71.9148 56.1008C71.8058 56.2539 71.6589 56.3659 71.4739 56.437C71.2903 56.5092 71.0857 56.5453 70.8604 56.5453ZM70.8457 54.995C71.0196 54.995 71.1666 54.9552 71.2866 54.8756C71.4066 54.796 71.4978 54.6815 71.5603 54.5321C71.6227 54.3827 71.654 54.2039 71.654 53.9957C71.654 53.7925 71.6233 53.6131 71.5621 53.4575C71.5009 53.302 71.4103 53.1802 71.2903 53.092C71.1702 53.0038 71.0221 52.9597 70.8457 52.9597C70.662 52.9597 70.509 53.0063 70.3865 53.0993C70.2653 53.1924 70.174 53.3173 70.1128 53.4741C70.0528 53.6308 70.0228 53.8047 70.0228 53.9957C70.0228 54.1917 70.0534 54.365 70.1146 54.5156C70.1771 54.665 70.2689 54.7825 70.3902 54.8683C70.5126 54.9528 70.6645 54.995 70.8457 54.995Z" fill="white"/>
<path d="M68.4941 54.2751V52.6072H68.9276V55.4286H68.4941V54.9511H68.4647C68.3985 55.0943 68.2957 55.2162 68.1561 55.3166C68.0165 55.4158 67.8401 55.4654 67.627 55.4654C67.4507 55.4654 67.294 55.4268 67.1568 55.3497C67.0196 55.2713 66.9119 55.1537 66.8335 54.997C66.7551 54.839 66.7159 54.64 66.7159 54.4V52.6072H67.1494V54.3706C67.1494 54.5763 67.207 54.7404 67.3221 54.8629C67.4385 54.9853 67.5866 55.0466 67.7666 55.0466C67.8744 55.0466 67.984 55.019 68.0954 54.9639C68.2081 54.9088 68.3024 54.8243 68.3783 54.7104C68.4555 54.5965 68.4941 54.4514 68.4941 54.2751Z" fill="white"/>
<path d="M63.562 55.4287V51.6667H63.9955V53.0554H64.0323C64.0641 53.0065 64.1082 52.944 64.1645 52.8681C64.2221 52.7909 64.3041 52.7223 64.4107 52.6623C64.5184 52.6011 64.6641 52.5705 64.8478 52.5705C65.0854 52.5705 65.2948 52.6299 65.4761 52.7487C65.6573 52.8675 65.7987 53.0358 65.9004 53.2538C66.002 53.4718 66.0528 53.729 66.0528 54.0253C66.0528 54.3241 66.002 54.5831 65.9004 54.8023C65.7987 55.0203 65.6579 55.1893 65.4779 55.3093C65.2979 55.4281 65.0903 55.4875 64.8552 55.4875C64.6739 55.4875 64.5288 55.4575 64.4198 55.3975C64.3109 55.3362 64.227 55.2671 64.1682 55.1899C64.1094 55.1115 64.0641 55.0466 64.0323 54.9952H63.9808V55.4287H63.562ZM63.9882 54.018C63.9882 54.2311 64.0194 54.419 64.0819 54.5819C64.1443 54.7435 64.2355 54.8703 64.3555 54.9621C64.4756 55.0528 64.6225 55.0981 64.7964 55.0981C64.9776 55.0981 65.1289 55.0503 65.2501 54.9548C65.3726 54.858 65.4644 54.7282 65.5257 54.5654C65.5881 54.4013 65.6193 54.2188 65.6193 54.018C65.6193 53.8196 65.5887 53.6408 65.5275 53.4816C65.4675 53.3212 65.3763 53.1944 65.2538 53.1014C65.1326 53.0071 64.9801 52.9599 64.7964 52.9599C64.6201 52.9599 64.4719 53.0046 64.3519 53.094C64.2319 53.1822 64.1412 53.3059 64.08 53.4651C64.0188 53.623 63.9882 53.8073 63.9882 54.018Z" fill="white"/>
<path d="M61.6755 55.4873C61.4036 55.4873 61.1691 55.4273 60.972 55.3073C60.776 55.186 60.6248 55.0171 60.5183 54.8003C60.4129 54.5823 60.3603 54.3288 60.3603 54.0398C60.3603 53.7508 60.4129 53.4961 60.5183 53.2757C60.6248 53.054 60.773 52.8814 60.9628 52.7577C61.1538 52.6328 61.3767 52.5703 61.6314 52.5703C61.7784 52.5703 61.9235 52.5948 62.0668 52.6438C62.21 52.6928 62.3405 52.7724 62.458 52.8826C62.5756 52.9916 62.6693 53.1361 62.7391 53.3161C62.8089 53.4961 62.8438 53.7178 62.8438 53.981V54.1647H60.6689V53.79H62.4029C62.4029 53.6308 62.3711 53.4888 62.3074 53.3639C62.2449 53.2389 62.1555 53.1404 62.0392 53.0681C61.9241 52.9959 61.7882 52.9597 61.6314 52.9597C61.4588 52.9597 61.3094 53.0026 61.1832 53.0883C61.0583 53.1728 60.9622 53.283 60.8948 53.419C60.8275 53.5549 60.7938 53.7006 60.7938 53.8561V54.106C60.7938 54.319 60.8305 54.4997 60.904 54.6478C60.9787 54.7948 61.0822 54.9068 61.2144 54.984C61.3467 55.0599 61.5004 55.0979 61.6755 55.0979C61.7894 55.0979 61.8923 55.082 61.9841 55.0501C62.0772 55.0171 62.1574 54.9681 62.2247 54.9032C62.2921 54.837 62.3441 54.755 62.3809 54.657L62.7997 54.7746C62.7556 54.9166 62.6815 55.0415 62.5774 55.1493C62.4733 55.2558 62.3447 55.3391 62.1917 55.3991C62.0386 55.4579 61.8665 55.4873 61.6755 55.4873Z" fill="white"/>
<path d="M57.9944 55.4287H56.8334V51.6667H58.0458C58.4107 51.6667 58.723 51.7421 58.9826 51.8927C59.2422 52.0421 59.4412 52.257 59.5796 52.5374C59.718 52.8166 59.7872 53.151 59.7872 53.5404C59.7872 53.9322 59.7174 54.2696 59.5778 54.5525C59.4381 54.8342 59.2349 55.0509 58.9679 55.2028C58.7009 55.3534 58.3764 55.4287 57.9944 55.4287ZM57.289 55.0246H57.965C58.276 55.0246 58.5338 54.9646 58.7383 54.8446C58.9428 54.7246 59.0953 54.5537 59.1957 54.3321C59.2961 54.1104 59.3463 53.8465 59.3463 53.5404C59.3463 53.2367 59.2967 52.9752 59.1975 52.756C59.0983 52.5356 58.9501 52.3666 58.753 52.249C58.5558 52.1303 58.3103 52.0709 58.0164 52.0709H57.289V55.0246Z" fill="white"/>
</svg>
